<svg xmlns="http://www.w3.org/2000/svg" viewBox="0 0 814.67 788.82"><defs><style>.cls-1{fill:#fff;}.cls-2{fill:#d70073;}</style></defs><g id="Layer_2" data-name="Layer 2"><g id="Imagotipo"><path class="cls-1" d="M814.67,393.85q0,118.15-51.8,206.41-51.71,88.5-143.45,138.48T407.34,788.82q-120.43,0-212.18-50.08T51.71,600.26Q0,512.06,0,393.85q0-117.09,51.71-206A372.8,372.8,0,0,1,82,143.51q42-52.83,102.11-87.85,5.44-3.16,11-6.19Q287-.1,407.34,0T619.42,49.47Q711.12,99,762.87,187.85,814.73,276.82,814.67,393.85Z"/><path class="cls-2" d="M460.88,106.08q57.08,36.39,81.84,93.34t15.79,125.17q-9,68.27-53.13,137.46Q460.83,531.92,403,568.45,345.13,605.17,282.81,607T163.43,572.52q-57.08-36.39-81.66-93.73T66,353.56q8.76-67.79,53.33-137.68,44.16-69.23,102.18-106.18T341.68,71.21Q403.9,69.65,460.88,106.08Z"/><path d="M391.34,215.12q30.39,19.38,43.58,49.7t8.41,66.65q-4.79,36.34-28.29,73.19-23.73,37.2-54.52,56.65t-64,20.52q-33.18,1-63.56-18.35t-43.48-49.91q-13.1-30.49-8.39-66.68t28.4-73.3q23.5-36.87,54.4-56.54t64-20.49Q361,195.72,391.34,215.12Z"/><path class="cls-1" d="M307.39,339.35,724.62,142.77Q767,272.32,759.14,412.91Z"/></g></g></svg>