<svg xmlns="http://www.w3.org/2000/svg" viewBox="0 0 3957.77 1648.92"><defs><style>.cls-1{fill:#fff;}</style></defs><g id="Layer_2" data-name="Layer 2"><g id="Imagotipo"><path class="cls-1" d="M1398.53,738.91V94.76a37.58,37.58,0,0,1,37.58-37.57h251.17q112,0,171.09,51.89t59.08,133.07q0,67.82-36.48,108.41a190.58,190.58,0,0,1-23.32,22c-19.9,15.79-20.45,46.14.37,60.71a179,179,0,0,1,35.8,33.41q40.07,48.81,40.08,113.54,0,85.31-61.66,140.78t-174.69,55.49H1436.11A37.59,37.59,0,0,1,1398.53,738.91Zm131.53-417.19a37.58,37.58,0,0,0,37.58,37.57h100.12q55.48,0,85.28-25.68t29.8-73q0-45.19-29.28-71.41T1665.7,163h-98.06a37.58,37.58,0,0,0-37.58,37.57Zm0,310.32a37.59,37.59,0,0,0,37.58,37.58H1677q58.57,0,90.94-27.23t32.37-76.55q0-50.34-33.91-79.13T1675,457.94H1567.64a37.58,37.58,0,0,0-37.58,37.58Z"/><path class="cls-1" d="M1994.14,738.89V94.78a37.59,37.59,0,0,1,37.59-37.59h226.5q86.31,0,142.31,29.28t83.75,79.13Q2512,215.45,2512,276.06q0,65.78-34.43,120.23-25.83,40.84-73.31,64.93c-18.34,9.3-25.2,32.12-16.08,50.55l104.15,210.45c12.36,25-5.82,54.27-33.69,54.27H2392a37.59,37.59,0,0,1-34-21.58L2244.76,514.45a37.59,37.59,0,0,0-34-21.58h-47.49a37.6,37.6,0,0,0-37.59,37.6V738.89a37.6,37.6,0,0,1-37.59,37.6h-56.35A37.6,37.6,0,0,1,1994.14,738.89Zm131.53-380.2a37.59,37.59,0,0,0,37.59,37.6H2250q65.76,0,96.6-31.86t30.83-84.26q0-51.38-30.32-82.21T2249,167.14h-85.72a37.59,37.59,0,0,0-37.59,37.59Z"/><path class="cls-1" d="M2589.33,738.75V298.9a37.74,37.74,0,0,1,37.74-37.74h56a37.74,37.74,0,0,1,37.74,37.74V738.75a37.74,37.74,0,0,1-37.74,37.74h-56A37.74,37.74,0,0,1,2589.33,738.75Z"/><path class="cls-1" d="M719.68,391.14a42.19,42.19,0,0,0-42.17-40H295.06a42.15,42.15,0,0,0-42.15,42.15v47.15a42.15,42.15,0,0,0,42.15,42.15H524.59c30.36,0,50.51,31,38.69,59a216.69,216.69,0,0,1-38.66,61.24q-61.24,67.77-163.95,67.86T196.26,602.83q-61.65-67.76-61.66-186t61.66-186Q257.91,163,360.67,163t164,67.85a209.24,209.24,0,0,1,25.16,34.41c7.39,12.62,21.24,20,35.86,20h52.43c31.93,0,52.27-34.13,37.07-62.21h0q-45.27-83.74-126.36-131T360.67,44.89q-107.9,0-188.48,47.21-80.82,47.36-126.45,131Q.05,307,0,416.85T45.74,610.52q45.67,83.73,126.45,131,80.54,47.36,188.48,47.3,106.92,0,188.11-47.3t126.36-131Q706.39,552.76,716,482.58a486.78,486.78,0,0,0,4.35-65.73Q720.32,403.8,719.68,391.14Z"/><path class="cls-1" d="M1232.56,776.49h87.74a37.08,37.08,0,0,0,34.82-49.82L1119.18,81.53a37.06,37.06,0,0,0-34.82-24.34H974.87a37.08,37.08,0,0,0-34.82,24.34L704.11,726.67a37.09,37.09,0,0,0,34.83,49.82h493.62ZM887.86,595.63,994,292.12c11.59-33.14,58.48-33.1,70,.06l105.61,303.51a37.07,37.07,0,0,1-35,49.26H922.86A37.08,37.08,0,0,1,887.86,595.63Z"/><path class="cls-1" d="M3250.34,632.36q-43.74,31.39-115.63,31.29-99.71,0-156.17-67.3-37-43.87-49.75-109.69c-2.3-11.85,10.32-21,20.7-14.79l.26.16q78,46.79,187,46.84,129.55,0,212.18-62.77l1.68-1.28c110.12-84.63,115.09-251.28,10.51-342.68q-5.91-5.16-12.19-10Q3266.31,37.94,3136.75,38q-108.87,0-187,47.21a298.81,298.81,0,0,0-25.37,17.13q-59.85,44.43-94.88,114.42a376.34,376.34,0,0,0-24.35,62.58q-17.78,60.4-17.77,131.64,0,110,42.12,193.66t120.25,130.53q78,46.8,187,46.75,129.55,0,212.18-62.67,63.18-47.81,90.1-123.86c8.62-24.32-9.89-49.81-35.68-49.81h-69.69a36.14,36.14,0,0,0-33.53,23A141.35,141.35,0,0,1,3250.34,632.36ZM2978.54,225q56.52-67.9,156.17-67.86,71.92,0,115.63,33.42,4.48,3.42,8.65,7.12c52,46.14,48.43,130.13-7.78,171l-.87.63q-43.74,31.38-115.63,31.38-99.71,0-156.17-67.3l-.37-.44a83.91,83.91,0,0,1-.18-107.3Z"/><path class="cls-1" d="M3507.69,738.77V94.9a37.71,37.71,0,0,1,37.72-37.71h56.09a37.71,37.71,0,0,1,37.72,37.71V636a37.72,37.72,0,0,0,37.72,37.72h243.11a37.72,37.72,0,0,1,37.72,37.72v27.32a37.72,37.72,0,0,1-37.72,37.72H3545.41A37.72,37.72,0,0,1,3507.69,738.77Z"/><path class="cls-1" d="M2759.58,129.48c-8.4,34.67-34.57,62.3-69.92,73.73a130.5,130.5,0,0,1-39.35,6.15h-1.46c-29.89-1-54.49-10.84-73.34-29.49a94.86,94.86,0,0,1-27.44-74,95.9,95.9,0,0,1,38.08-70.5,101.78,101.78,0,0,1,15.92-9.86A39,39,0,0,1,2638.88,0h1.86c5.57.29,12.11.59,19,1.56,30.66,4,54.29,14.75,72.45,33C2757.53,60.05,2767.78,95.6,2759.58,129.48Z"/><path class="cls-1" d="M1194.41,1636.59h83.88a39.78,39.78,0,0,0,37.36-53.43l-234-639.75a39.78,39.78,0,0,0-37.35-26.12H938.61a39.78,39.78,0,0,0-37.36,26.12l-234,639.75a39.77,39.77,0,0,0,37.35,53.43h489.77ZM851,1452.16l102.35-292.64c12.43-35.56,62.72-35.52,75.1.06l101.83,292.64a39.76,39.76,0,0,1-37.56,52.84H888.51A39.76,39.76,0,0,1,851,1452.16Z"/><path class="cls-1" d="M2409.62,1636.59h87.24a37.43,37.43,0,0,0,35.15-50.28L2296.33,941.87a37.44,37.44,0,0,0-35.15-24.58h-109A37.44,37.44,0,0,0,2117,941.87l-235.68,644.44a37.43,37.43,0,0,0,35.15,50.28h493.12Zm-344.53-181.31,105.66-302.1c11.7-33.46,59-33.42,70.68.06l105.12,302.09a37.43,37.43,0,0,1-35.35,49.73H2100.42A37.43,37.43,0,0,1,2065.09,1455.28Z"/><path class="cls-1" d="M349.38,1648.92q-108.94,0-187-46.75T42.13,1471.67Q0,1387.94,0,1278t42.13-194.21q42.12-84.24,120.23-131.52t187-47.28q129.45,0,212.18,64.23,70.71,54.9,96,147.72a25.76,25.76,0,0,1-24.75,32.62H539.39a26,26,0,0,1-24.49-18.08q-15.3-45.83-52-73.89-43.69-33.37-115.61-33.39-99.67,0-156.19,67.81t-56.51,186q0,118.18,56.51,185.48t156.19,67.3q71.93,0,115.61-31.34,36.43-26.15,51.78-69.15c3.73-10.45,13.28-17.68,24.38-17.68h93.31a25.74,25.74,0,0,1,24.68,32.9q-25.49,87.7-95.51,140.76Q478.85,1648.94,349.38,1648.92Z"/><path class="cls-1" d="M1610.18,1648.92q-79.14,0-139.75-27.22t-95.56-78.1q-24.09-35.07-32.07-80.63c-3.94-22.57,13.79-43.19,36.71-43.19H1447c16.62,0,30.49,11.7,34.52,27.83a120.6,120.6,0,0,0,32.58,56.94q34.41,34.44,95.05,34.43,52.41,0,83.23-25.18t30.83-67.31q0-44.16-27.23-68.84t-72.45-40.08q-45.22-15.42-96.59-32.88-83.24-28.76-126.9-74t-43.67-120.22q-1-63.7,30.31-109.44t85.8-70.9Q1526.93,905,1597.85,905q71.91,0,126.9,25.7t86.32,71.93a189,189,0,0,1,27.81,65c5.22,23.06-12.74,45-36.39,45h-67.62c-16,0-30.6-10.06-35.18-25.35s-13-29.22-25.29-42q-28.28-29.28-78.6-29.29-43.17-1-72.45,21.07t-29.29,64.22q0,36,22.6,57t61.66,35.45q39,14.4,89.4,30.83,53.41,18.49,97.62,43.16t70.9,65.25q26.71,40.6,26.72,104.29a201.23,201.23,0,0,1-28.77,104.82q-28.79,48.3-85.3,77.58T1610.18,1648.92Z"/><path class="cls-1" d="M2581.2,1598.81V955.08A37.79,37.79,0,0,1,2619,917.29h226.31q86.31,0,142.31,29.29t83.75,79.13q27.75,49.85,27.75,110.46,0,65.77-34.43,120.23-25.83,40.85-73.31,64.93c-18.34,9.3-25.2,32.11-16.08,50.54l104,210.18a37.78,37.78,0,0,1-33.86,54.54h-66.22a37.78,37.78,0,0,1-34.19-21.68l-113.15-240.24a37.79,37.79,0,0,0-34.18-21.69h-47.18a37.78,37.78,0,0,0-37.78,37.79v208a37.78,37.78,0,0,1-37.78,37.78h-56A37.78,37.78,0,0,1,2581.2,1598.81Zm131.53-380.2a37.78,37.78,0,0,0,37.78,37.79h86.55q65.76,0,96.6-31.86t30.83-84.26q0-51.37-30.32-82.21T2836,1027.24h-85.53a37.78,37.78,0,0,0-37.78,37.79Z"/><path class="cls-1" d="M3170,1598.42v-439a38.18,38.18,0,0,1,38.18-38.18h55.17a38.18,38.18,0,0,1,38.18,38.18v439a38.18,38.18,0,0,1-38.18,38.17h-55.17A38.17,38.17,0,0,1,3170,1598.42Z"/><path class="cls-1" d="M3340.2,989.59c-8.4,34.67-34.57,62.3-69.92,73.72a130.19,130.19,0,0,1-39.35,6.16h-1.46c-29.89-1-54.49-10.84-73.34-29.49a94.86,94.86,0,0,1-27.44-74,95.9,95.9,0,0,1,38.08-70.5,102.61,102.61,0,0,1,15.92-9.87,39,39,0,0,1,36.81-25.48h1.86c5.57.29,12.11.58,18.95,1.56,30.66,4,54.29,14.75,72.45,33C3338.15,920.16,3348.4,955.71,3340.2,989.59Z"/></g></g></svg>