<svg xmlns="http://www.w3.org/2000/svg" viewBox="0 0 9705.47 1687.85"><defs><style>.cls-1{fill:#fff;}.cls-2{fill:#d70073;}</style></defs><g id="Layer_2" data-name="Layer 2"><g id="Imagotipo"><path class="cls-1" d="M1743.16,842.73q0,252.81-110.83,441.66-110.64,189.36-306.95,296.3T871.59,1687.85q-257.7,0-454-107.16t-306.95-296.3Q0,1095.66,0,842.73,0,592.19,110.64,402a798.89,798.89,0,0,1,64.84-94.88Q265.34,194,394,119.1q11.66-6.78,23.63-13.25Q614.11-.23,871.59,0q257.7,0,453.79,105.85,196.2,106.08,306.95,296.1Q1743.27,592.3,1743.16,842.73Z"/><path class="cls-2" d="M894.56,236.29Q994.51,300,1037.89,399.76T1065.54,619q-15.72,119.57-93,240.75-78,122.35-179.3,186.33-101.36,64.31-210.5,67.5t-209.07-60.37q-99.94-63.74-143-164.15T203,669.71Q218.37,551,296.42,428.6q77.34-121.26,179-186Q577.05,178.1,685.8,175.24,794.76,172.5,894.56,236.29Z"/><path d="M772.77,427.26q53.22,33.94,76.32,87T863.82,631q-8.37,63.68-49.55,128.19-41.55,65.14-95.47,99.22-54,34.23-112.08,35.93T495.4,862.22q-53.22-33.93-76.14-87.4T404.57,658q8.16-63.21,49.73-128.38,41.18-64.57,95.28-99t112-35.89Q719.64,393.29,772.77,427.26Z"/><path class="cls-1" d="M634.22,638l516.37-243.3Q1203,555,1193.31,729Z"/><path class="cls-2" d="M2329.64,806.21q-107.78,0-188.33-47.21T2015.07,628.14q-45.69-83.64-45.67-193.46t45.67-193.46q45.66-83.64,126.24-130.86t188.33-47.22q106.72,0,187.82,47.22T2643.7,241.22q45.15,83.66,45.15,193.46T2643.7,628.14Q2598.52,711.8,2517.46,759T2329.64,806.21Zm0-118q102.62,0,163.7-67.73t61.06-185.77q0-118-61.06-185.77t-163.7-67.74q-102.63,0-164.21,67.74t-61.58,185.77q0,118,61.58,185.77T2329.64,688.18Z"/><path class="cls-2" d="M2909.82,780.86,2661.6,102.14a19.86,19.86,0,0,1,18.65-26.68h98.09a19.85,19.85,0,0,1,18.75,13.33L2977,605.69c6.18,17.76,31.29,17.78,37.49,0L3195.26,88.76A19.85,19.85,0,0,1,3214,75.46h96.05a19.86,19.86,0,0,1,18.65,26.68L3080.49,780.86a19.86,19.86,0,0,1-18.65,13H2928.47A19.84,19.84,0,0,1,2909.82,780.86Z"/><path class="cls-2" d="M3655.65,539.27q129.41,0,211.92-62.59a143.17,143.17,0,0,0,22.73-22.36c72-86.18,71.49-212.07,2.58-300.74-8.19-10.53-16.68-19.61-25.31-26.32q-82.52-64.08-211.92-64.08-108.74,0-186.78,47.16a295.25,295.25,0,0,0-25.79,17.48q-59.37,44.24-94.31,113.91A365.66,365.66,0,0,0,3325,302.11q-18.3,61.15-18.3,133.61,0,109.84,42.07,193.43t120.1,130.37q78,46.74,186.78,46.69,129.41,0,211.92-62.59,71.22-53.89,96.31-143.69a23.33,23.33,0,0,0-22.32-29.77h-98.13a23.43,23.43,0,0,0-22,16q-15.19,44.1-52.29,70.7-43.7,31.33-115.49,31.25-99.57,0-156-67.22-46.18-55-54.5-144a.73.73,0,0,1,1.15-.67c7.92,5.83,16.09,11.25,24.59,16.34Q3546.83,539.32,3655.65,539.27ZM3497.63,250q56.45-67.83,156-67.78,71.85,0,115.49,33.38a150.18,150.18,0,0,1,15.72,13.86c47,47.61,38.59,121.1-15.52,160.38l-.2.15q-43.7,31.33-115.49,31.25-99.57,0-156-67.22h0a80.53,80.53,0,0,1-.51-103.4Z"/><path class="cls-2" d="M8289.65,539.27q129.41,0,211.92-62.59a143.63,143.63,0,0,0,22.74-22.36c72-86.18,71.48-212.07,2.57-300.74-8.19-10.53-16.68-19.61-25.31-26.32q-82.51-64.08-211.92-64.08-108.73,0-186.77,47.16a293.91,293.91,0,0,0-25.8,17.48q-59.37,44.24-94.31,113.91A365.66,365.66,0,0,0,7959,302.11q-18.3,61.15-18.3,133.61,0,109.84,42.07,193.43t120.11,130.37q77.94,46.74,186.77,46.69,129.41,0,211.92-62.59,69.89-52.87,95.35-140.32a25.91,25.91,0,0,0-24.85-33.14h-92.74c-11.18,0-20.79,7.29-24.56,17.81q-15.33,42.85-51.67,68.92-43.68,31.33-115.48,31.25-99.59,0-156-67.22Q8085,565.43,8077,475.29a307.53,307.53,0,0,0,25.89,17.29Q8180.82,539.32,8289.65,539.27ZM8131.63,250q56.45-67.83,156-67.78,71.83,0,115.48,33.38A150.11,150.11,0,0,1,8419.39,230c46.38,47.54,38.32,120.31-15.44,159.33l-.85.62q-43.68,31.33-115.48,31.25-99.59,0-156-67.22l-.39-.46c-24.8-29.42-24.63-73.26-.13-102.93Z"/><path class="cls-2" d="M3567.06,1400.78q129.41,0,211.93-62.59a144,144,0,0,0,22.73-22.36c72-86.18,71.48-212.07,2.57-300.74-8.18-10.53-16.68-19.61-25.3-26.32q-82.53-64.08-211.93-64.08-108.73,0-186.77,47.16a293.91,293.91,0,0,0-25.8,17.48q-59.35,44.24-94.31,113.91a365.63,365.63,0,0,0-23.76,60.38q-18.32,61.16-18.31,133.61,0,109.85,42.07,193.43T3380.29,1621q77.94,46.74,186.77,46.69,129.41,0,211.93-62.6,65.07-49.23,91.64-128.48a34.09,34.09,0,0,0-32.24-45h-76a33.88,33.88,0,0,0-31.61,21.68,141.43,141.43,0,0,1-50.24,65.05q-43.68,31.33-115.48,31.25-99.59,0-156-67.22-46.59-55.48-54.64-145.63a307.53,307.53,0,0,0,25.89,17.29Q3458.23,1400.83,3567.06,1400.78Zm-158-289.31q56.46-67.83,156-67.78,71.83,0,115.48,33.38a149.17,149.17,0,0,1,16.29,14.44c46.38,47.54,38.32,120.31-15.44,159.33l-.85.62q-43.68,31.33-115.48,31.25-99.59,0-156-67.22l-.39-.46c-24.8-29.42-24.63-73.26-.13-102.93Z"/><path class="cls-2" d="M5287.11,1400.78q129.41,0,211.93-62.59a144,144,0,0,0,22.73-22.36c72-86.18,71.48-212.07,2.57-300.74-8.18-10.53-16.68-19.61-25.3-26.32q-82.53-64.08-211.93-64.08-108.73,0-186.77,47.16a293.91,293.91,0,0,0-25.8,17.48q-59.35,44.24-94.31,113.91a364.75,364.75,0,0,0-23.76,60.38q-18.31,61.16-18.31,133.61,0,109.85,42.07,193.43T5100.34,1621q77.94,46.74,186.77,46.69,129.41,0,211.93-62.6,69.87-52.86,95.34-140.31a25.91,25.91,0,0,0-24.85-33.14h-92.74c-11.18,0-20.79,7.29-24.56,17.81q-15.31,42.86-51.67,68.92-43.68,31.33-115.48,31.25-99.59,0-156-67.22-46.59-55.48-54.64-145.63a307.53,307.53,0,0,0,25.89,17.29Q5178.28,1400.83,5287.11,1400.78Zm-158-289.31q56.44-67.83,156-67.78,71.84,0,115.48,33.38a149.17,149.17,0,0,1,16.29,14.44c46.38,47.54,38.32,120.31-15.44,159.33l-.85.62q-43.68,31.33-115.48,31.25-99.59,0-156-67.22l-.39-.46c-24.8-29.42-24.63-73.26-.13-102.93Z"/><path class="cls-2" d="M8399.24,1400.78q129.41,0,211.92-62.59a143.63,143.63,0,0,0,22.74-22.36c72-86.18,71.48-212.07,2.57-300.74-8.19-10.53-16.68-19.61-25.31-26.32q-82.51-64.08-211.92-64.08-108.73,0-186.77,47.16a293.91,293.91,0,0,0-25.8,17.48q-59.37,44.24-94.31,113.91a365.66,365.66,0,0,0-23.77,60.38q-18.3,61.16-18.3,133.61,0,109.85,42.07,193.43T8212.47,1621q77.94,46.74,186.77,46.69,129.41,0,211.92-62.6,73.31-55.45,97.74-148.95c3.24-12.4-6.37-24.5-19.19-24.5H8584.49a19.71,19.71,0,0,0-18.7,13.64q-15,45.76-53.1,73.09-43.68,31.33-115.48,31.25-99.58,0-156-67.22-46.6-55.48-54.64-145.63a307.53,307.53,0,0,0,25.89,17.29Q8290.41,1400.83,8399.24,1400.78Zm-158-289.31q56.45-67.83,156-67.78,71.84,0,115.48,33.38a150.11,150.11,0,0,1,16.29,14.44c46.38,47.54,38.32,120.31-15.44,159.33l-.85.62q-43.68,31.33-115.48,31.25-99.58,0-156-67.22l-.39-.46c-24.8-29.42-24.63-73.26-.13-102.93Z"/><path class="cls-2" d="M3965.46,774.63V94.72a19.26,19.26,0,0,1,19.27-19.26h244.5q86.2,0,142.14,29.25t83.65,79q27.72,49.79,27.72,110.33,0,65.7-34.39,120.08-29.67,46.94-88,71.7a19.27,19.27,0,0,0-9.92,26.28l125.67,254a19.26,19.26,0,0,1-17.26,27.8H4351.27a19.26,19.26,0,0,1-17.43-11l-123-261.16a19.27,19.27,0,0,0-17.43-11.06H4116.1a19.27,19.27,0,0,0-19.27,19.27V774.63a19.26,19.26,0,0,1-19.26,19.26h-92.84A19.26,19.26,0,0,1,3965.46,774.63Zm131.37-379.74a19.26,19.26,0,0,0,19.27,19.26H4221q65.67,0,96.48-31.82t30.79-84.15q0-51.31-30.28-82.11t-98-30.79H4116.1a19.26,19.26,0,0,0-19.27,19.26Z"/><path class="cls-2" d="M4667.16,777.47V197.6a16.43,16.43,0,0,0-16.42-16.43H4474.22a16.43,16.43,0,0,1-16.43-16.42V91.88a16.43,16.43,0,0,1,16.43-16.42H4992.5a16.43,16.43,0,0,1,16.43,16.42v72.87a16.43,16.43,0,0,1-16.43,16.42H4815a16.43,16.43,0,0,0-16.43,16.43V777.47a16.42,16.42,0,0,1-16.42,16.42h-98.53A16.42,16.42,0,0,1,4667.16,777.47Z"/><path class="cls-2" d="M5051.78,777.26V92.1a16.64,16.64,0,0,1,16.64-16.64h98.1a16.63,16.63,0,0,1,16.63,16.64V357.49a16.64,16.64,0,0,0,16.64,16.64h289a16.64,16.64,0,0,0,16.64-16.64V92.1a16.63,16.63,0,0,1,16.63-16.64h98.1A16.64,16.64,0,0,1,5636.8,92.1V777.26a16.63,16.63,0,0,1-16.64,16.63h-98.1a16.62,16.62,0,0,1-16.63-16.63V497.5a16.64,16.64,0,0,0-16.64-16.64h-289a16.64,16.64,0,0,0-16.64,16.64V777.26a16.62,16.62,0,0,1-16.63,16.63h-98.1A16.63,16.63,0,0,1,5051.78,777.26Z"/><path class="cls-2" d="M5733.38,774.36V360.3a19.54,19.54,0,0,1,19.54-19.54h92.3a19.53,19.53,0,0,1,19.53,19.54V774.36a19.53,19.53,0,0,1-19.53,19.53h-92.3A19.53,19.53,0,0,1,5733.38,774.36Z"/><path class="cls-2" d="M6572.07,771.33V98a22.56,22.56,0,0,0-22.56-22.56h-96.74a22.58,22.58,0,0,0-18.77,10l-289.64,434C6132,538.08,6103,529.31,6103,507V98a22.56,22.56,0,0,0-22.56-22.56h-86.25A22.56,22.56,0,0,0,5971.66,98V771.33a22.56,22.56,0,0,0,22.56,22.56H6091a22.54,22.54,0,0,0,18.75-10l289.66-433.15c12.39-18.54,41.31-9.76,41.31,12.54V771.33a22.56,22.56,0,0,0,22.56,22.56h86.25A22.56,22.56,0,0,0,6572.07,771.33Z"/><path class="cls-2" d="M6641.93,775.3V94.06a18.6,18.6,0,0,1,18.6-18.6h94.18a18.59,18.59,0,0,1,18.59,18.6v224c0,17,20.86,25.07,32.32,12.56l228-249.11a18.6,18.6,0,0,1,13.72-6h111.35c16.23,0,24.67,19.35,13.63,31.25L6946.2,350.33a18.6,18.6,0,0,0-2.12,22.54l246.5,392.54a18.59,18.59,0,0,1-15.74,28.48H7057.71a18.62,18.62,0,0,1-15.83-8.82L6855,482.27a18.59,18.59,0,0,0-29.52-2.8L6778.2,531a18.6,18.6,0,0,0-4.9,12.58V775.3a18.59,18.59,0,0,1-18.59,18.59h-94.18A18.59,18.59,0,0,1,6641.93,775.3Z"/><path class="cls-2" d="M7520.69,768.94V100.41a25,25,0,0,1,25-25h81.47a25,25,0,0,1,25,25v565.9a25,25,0,0,0,24.95,25h268.26a25,25,0,0,1,25,25v52.73a25,25,0,0,1-25,24.95H7545.64A25,25,0,0,1,7520.69,768.94Z"/><path class="cls-2" d="M8887.49,806.21q-79,0-139.57-27.2t-95.45-78q-25.68-37.38-33-86.69c-2.89-19.41,11.79-37,31.42-37h76.47a31.87,31.87,0,0,1,31,25q7.72,34.17,33.19,59.62,34.38,34.4,94.94,34.38,52.34,0,83.13-25.14T9000.39,604q0-44.12-27.2-68.76t-72.36-40q-45.17-15.39-96.47-32.84-83.13-28.72-126.75-73.9T8634,268.41q-1-63.62,30.28-109.3T8750,88.29q54.38-25.14,125.21-25.15,71.82,0,126.75,25.67t86.21,71.84q21.41,31.59,29.13,71.34c3.87,19.87-10.9,38.48-31.14,38.48h-78c-14.69,0-26.86-10.23-30.92-24.35q-6.74-23.37-25.54-42.88Q8923.4,174,8873.13,174q-43.11-1-72.36,21t-29.25,64.14q0,35.94,22.57,57t61.58,35.41q39,14.38,89.3,30.78,53.34,18.48,97.5,43.11t70.82,65.17Q9140,531.17,9140,594.78a201,201,0,0,1-28.73,104.69Q9082.49,747.72,9026,777T8887.49,806.21Z"/><path class="cls-2" d="M9453,806.21q-79,0-139.57-27.2T9218,701q-24.21-35.22-32.12-81c-3.84-22.28,13.61-42.62,36.23-42.62H9289c17.18,0,31.42,12.11,35.71,28.74A120.53,120.53,0,0,0,9357,662q34.38,34.4,94.94,34.38,52.34,0,83.13-25.14T9565.89,604q0-44.12-27.2-68.76t-72.36-40q-45.17-15.39-96.47-32.84-83.13-28.72-126.75-73.9t-43.62-120.08q-1-63.62,30.28-109.3t85.7-70.82q54.38-25.14,125.21-25.15,71.82,0,126.75,25.67t86.21,71.84a189,189,0,0,1,27.91,65.46c5.08,22.77-12.59,44.36-35.92,44.36h-68.42c-15.75,0-30.26-9.9-34.72-25q-6.81-23-25.35-42.22Q9488.9,174,9438.63,174q-43.11-1-72.36,21T9337,259.17q0,35.94,22.57,57t61.58,35.41q39,14.38,89.3,30.78,53.36,18.48,97.5,43.11t70.82,65.17q26.68,40.56,26.68,104.17a201,201,0,0,1-28.73,104.69Q9648,747.72,9591.54,777T9453,806.21Z"/><path class="cls-2" d="M2321.62,1667.74q-108.79,0-186.79-46.69T2014.75,1490.7q-42.11-83.64-42.08-193.46t42.08-194q42.06-84.13,120.08-131.37t186.79-47.21q129.32,0,211.94,64.14,65.89,51.2,92.3,135.36c6.95,22.15-9.29,44.77-32.51,44.77h-75.91a34,34,0,0,1-32-22.37q-15.52-42.8-50.42-69.49-43.64-33.35-115.46-33.36-99.57,0-156,67.74t-56.44,185.77q0,118,56.44,185.25t156,67.22q71.82,0,115.46-31.3a141,141,0,0,0,50.19-65,34.09,34.09,0,0,1,31.76-21.78h75.71a34.24,34.24,0,0,1,32.39,45.19q-26.58,79.05-91.52,128.27Q2450.94,1667.75,2321.62,1667.74Z"/><path class="cls-2" d="M2682.44,1627V965.43A28.44,28.44,0,0,1,2710.88,937h235.33q86.2,0,142.14,29.25t83.65,79q27.72,49.8,27.72,110.33,0,65.7-34.39,120.08-27.69,43.8-80.3,68.29a28.35,28.35,0,0,0-13.34,38.26l114.89,232.14a28.44,28.44,0,0,1-25.49,41.05h-87a28.43,28.43,0,0,1-25.73-16.32l-118-250.62a28.44,28.44,0,0,0-25.73-16.32h-62.32a28.44,28.44,0,0,0-28.44,28.44V1627a28.43,28.43,0,0,1-28.44,28.43h-74.49A28.43,28.43,0,0,1,2682.44,1627Zm131.37-379.75a28.44,28.44,0,0,0,28.44,28.44H2938q65.69,0,96.48-31.82t30.8-84.15q0-51.32-30.28-82.11t-98-30.79h-94.72a28.44,28.44,0,0,0-28.44,28.44Z"/><path class="cls-2" d="M4380.69,1656.43h110.68a20.92,20.92,0,0,0,19.65-28.11L4263.58,951.73A20.92,20.92,0,0,0,4243.93,938H4112.05a20.93,20.93,0,0,0-19.65,13.74L3845,1628.32a20.92,20.92,0,0,0,19.65,28.11h516.07Zm-351.78-159.21,128.77-368.17c6.54-18.7,33-18.68,39.51,0l128.11,368.17a20.92,20.92,0,0,1-19.76,27.8H4048.66A20.92,20.92,0,0,1,4028.91,1497.22Z"/><path class="cls-2" d="M4617.54,1636V1062.18a19.48,19.48,0,0,0-19.48-19.48H4427.64a19.47,19.47,0,0,1-19.47-19.47V956.47A19.48,19.48,0,0,1,4427.64,937h512.19a19.47,19.47,0,0,1,19.47,19.48v66.76a19.46,19.46,0,0,1-19.47,19.47H4768.38a19.48,19.48,0,0,0-19.47,19.48V1636a19.47,19.47,0,0,1-19.48,19.47H4637A19.47,19.47,0,0,1,4617.54,1636Z"/><path class="cls-2" d="M5883.77,1630.94V961.47A24.48,24.48,0,0,1,5908.25,937h116.42a24.48,24.48,0,0,1,21.88,13.5l200.07,398.34c9.06,18.05,34.84,18,43.81-.12L6487.69,950.6A24.49,24.49,0,0,1,6509.63,937H6626a24.48,24.48,0,0,1,24.49,24.48v669.47a24.48,24.48,0,0,1-24.49,24.48h-82.4a24.48,24.48,0,0,1-24.48-24.48V1261.76c0-25.74-34.63-34-46.3-11.11l-147,288.77a24.5,24.5,0,0,1-21.82,13.37h-73.64a24.5,24.5,0,0,1-21.82-13.37l-147-288.78c-11.68-22.93-46.3-14.62-46.3,11.11v369.19a24.48,24.48,0,0,1-24.48,24.48h-82.41A24.48,24.48,0,0,1,5883.77,1630.94Z"/><path class="cls-2" d="M7079.45,1667.74q-107.77,0-188.33-47.21t-126.24-130.86q-45.69-83.64-45.67-193.46t45.67-193.46q45.66-83.64,126.24-130.86t188.33-47.21q106.73,0,187.81,47.21t126.24,130.86q45.16,83.65,45.16,193.46t-45.16,193.46q-45.16,83.67-126.24,130.86T7079.45,1667.74Zm0-118q102.6,0,163.69-67.73t61.07-185.77q0-118-61.07-185.77t-163.69-67.74q-102.64,0-164.21,67.74t-61.58,185.77q0,118,61.58,185.77T7079.45,1549.71Z"/><path class="cls-2" d="M7507.41,1637.38V955a18,18,0,0,1,18-18h245.73q86.2,0,142.14,29.25t83.65,79q27.72,49.8,27.71,110.33,0,65.7-34.38,120.08-30,47.41-89.15,72.21a18,18,0,0,0-9.3,24.6L8019,1629.38a18,18,0,0,1-16.17,26H7892.44a18,18,0,0,1-16.32-10.35l-123.67-262.56a18,18,0,0,0-16.32-10.35h-79.31a18,18,0,0,0-18,18v247.18a18,18,0,0,1-18,18h-95.29A18,18,0,0,1,7507.41,1637.38Zm131.37-379.74a18,18,0,0,0,18,18H7763q65.69,0,96.48-31.82t30.79-84.15q0-51.32-30.27-82.11t-98-30.79H7656.82a18,18,0,0,0-18,18Z"/><path class="cls-2" d="M5903.43,194.32c-8.39,34.62-34.53,62.22-69.83,73.64a130.6,130.6,0,0,1-39.31,6.14h-1.46c-29.85-1-54.42-10.83-73.25-29.45a94.69,94.69,0,0,1-27.4-73.93,95.77,95.77,0,0,1,38-70.42,101.83,101.83,0,0,1,15.9-9.85A38.91,38.91,0,0,1,5782.88,65h1.86c5.55.3,12.09.59,18.92,1.56,30.62,4,54.22,14.73,72.36,33C5901.38,125,5911.62,160.48,5903.43,194.32Z"/></g></g></svg>