<svg xmlns="http://www.w3.org/2000/svg" viewBox="0 0 5928.78 1687.85"><defs><style>.cls-1{fill:#fff;}.cls-2{fill:#d70073;}</style></defs><g id="Layer_2" data-name="Layer 2"><g id="Imagotipo"><path class="cls-1" d="M3369.54,758.37V114.23a37.58,37.58,0,0,1,37.58-37.58h251.17q112,0,171.09,51.89t59.08,133.07q0,67.83-36.48,108.41a189.81,189.81,0,0,1-23.32,22c-19.9,15.79-20.45,46.15.37,60.71a179,179,0,0,1,35.8,33.41q40.07,48.81,40.07,113.54,0,85.3-61.65,140.78T3668.56,796H3407.12A37.59,37.59,0,0,1,3369.54,758.37Zm131.53-417.19a37.58,37.58,0,0,0,37.58,37.58h100.11q55.5,0,85.29-25.69t29.8-73q0-45.21-29.28-71.42t-87.86-26.2h-98.06a37.57,37.57,0,0,0-37.58,37.58Zm0,310.32a37.57,37.57,0,0,0,37.58,37.58H3648q58.57,0,90.94-27.23t32.37-76.55q0-50.34-33.91-79.12T3646,477.4H3538.65A37.57,37.57,0,0,0,3501.07,515Z"/><path class="cls-1" d="M3965.15,758.35V114.24a37.59,37.59,0,0,1,37.59-37.59h226.5q86.31,0,142.31,29.29t83.75,79.12q27.75,49.84,27.75,110.46,0,65.78-34.43,120.23-25.83,40.86-73.31,64.93c-18.34,9.3-25.2,32.12-16.08,50.55l104.15,210.45a37.6,37.6,0,0,1-33.7,54.27H4363a37.59,37.59,0,0,1-34-21.58L4215.77,533.91a37.58,37.58,0,0,0-34-21.57h-47.49a37.59,37.59,0,0,0-37.59,37.59V758.35a37.59,37.59,0,0,1-37.6,37.6h-56.34A37.59,37.59,0,0,1,3965.15,758.35Zm131.53-380.19a37.59,37.59,0,0,0,37.59,37.59H4221q65.76,0,96.6-31.86t30.83-84.26q0-51.36-30.32-82.2T4220,186.6h-85.72a37.59,37.59,0,0,0-37.59,37.59Z"/><path class="cls-1" d="M4560.34,758.21V318.36a37.74,37.74,0,0,1,37.74-37.74h56.05a37.74,37.74,0,0,1,37.74,37.74V758.21A37.74,37.74,0,0,1,4654.13,796h-56.05A37.74,37.74,0,0,1,4560.34,758.21Z"/><path class="cls-1" d="M2690.69,410.61a42.2,42.2,0,0,0-42.17-40H2266.07a42.15,42.15,0,0,0-42.15,42.15v47.15A42.15,42.15,0,0,0,2266.07,502H2495.6c30.36,0,50.51,31,38.69,59a217.1,217.1,0,0,1-38.66,61.25q-61.24,67.76-164,67.85T2167.27,622.3q-61.65-67.77-61.66-186t61.66-186q61.65-67.9,164.41-67.86t164,67.86a209,209,0,0,1,25.16,34.41c7.39,12.61,21.24,20,35.86,20h52.43c31.93,0,52.27-34.13,37.07-62.21h0q-45.27-83.73-126.36-131-81.24-47.22-188.11-47.22-107.89,0-188.48,47.22-80.82,47.34-126.46,131-45.67,83.87-45.73,193.76T2016.74,630q45.69,83.73,126.46,131,80.53,47.35,188.48,47.31,106.92,0,188.11-47.31t126.36-131Q2677.4,572.22,2687,502a486.63,486.63,0,0,0,4.35-65.72Q2691.33,423.26,2690.69,410.61Z"/><path class="cls-1" d="M3203.57,796h87.74a37.08,37.08,0,0,0,34.82-49.82L3090.19,101a37.06,37.06,0,0,0-34.82-24.34H2945.88A37.08,37.08,0,0,0,2911.06,101L2675.12,746.13A37.09,37.09,0,0,0,2710,796h493.62ZM2858.87,615.1,2965,311.59c11.59-33.15,58.48-33.11,70,.05l105.61,303.51a37.09,37.09,0,0,1-35,49.27H2893.87A37.08,37.08,0,0,1,2858.87,615.1Z"/><path class="cls-1" d="M5221.35,651.83q-43.74,31.38-115.63,31.29-99.71,0-156.17-67.3-37-43.87-49.75-109.69c-2.3-11.86,10.31-21,20.69-14.8l.27.16q78,46.8,187,46.84,129.56,0,212.18-62.76l1.68-1.28c110.12-84.64,115.09-251.28,10.51-342.68q-5.93-5.18-12.19-10.05-82.62-64.14-212.18-64.15-108.87,0-187,47.21a297.22,297.22,0,0,0-25.37,17.13q-59.85,44.43-94.88,114.42a376.34,376.34,0,0,0-24.35,62.58q-17.77,60.4-17.77,131.64,0,110,42.12,193.67t120.25,130.52q78,46.8,187,46.75,129.56,0,212.18-62.67,63.18-47.8,90.1-123.86c8.62-24.32-9.89-49.81-35.68-49.81h-69.69a36.16,36.16,0,0,0-33.53,23A141.43,141.43,0,0,1,5221.35,651.83Zm-271.8-407.42q56.52-67.9,156.17-67.86,71.93,0,115.63,33.42,4.48,3.43,8.65,7.13c52,46.13,48.43,130.13-7.78,171l-.87.62q-43.74,31.38-115.63,31.39-99.71,0-156.17-67.31l-.37-.44a83.9,83.9,0,0,1-.18-107.3Z"/><path class="cls-1" d="M5478.7,758.23V114.37a37.72,37.72,0,0,1,37.72-37.72h56.09a37.72,37.72,0,0,1,37.72,37.72v541.1A37.72,37.72,0,0,0,5648,693.19h243.11a37.72,37.72,0,0,1,37.72,37.72v27.32A37.72,37.72,0,0,1,5891.06,796H5516.42A37.72,37.72,0,0,1,5478.7,758.23Z"/><path class="cls-1" d="M4730.59,148.94c-8.4,34.67-34.57,62.3-69.92,73.73a130.19,130.19,0,0,1-39.35,6.15h-1.46c-29.89-1-54.49-10.84-73.34-29.49a94.86,94.86,0,0,1-27.44-74,95.9,95.9,0,0,1,38.08-70.5A102.07,102.07,0,0,1,4573.08,45a39,39,0,0,1,36.81-25.49h1.86c5.57.3,12.11.59,18.95,1.57,30.66,4,54.29,14.74,72.45,33C4728.54,79.52,4738.79,115.06,4730.59,148.94Z"/><path class="cls-1" d="M3165.42,1656.06h83.88a39.77,39.77,0,0,0,37.35-53.43l-234-639.76a39.78,39.78,0,0,0-37.35-26.11H2909.61a39.78,39.78,0,0,0-37.35,26.11l-234,639.76a39.78,39.78,0,0,0,37.36,53.43h489.77ZM2822,1471.62,2924.33,1179c12.43-35.55,62.72-35.51,75.1.06l101.83,292.64a39.77,39.77,0,0,1-37.56,52.85H2859.52A39.78,39.78,0,0,1,2822,1471.62Z"/><path class="cls-1" d="M4380.63,1656.06h87.24a37.43,37.43,0,0,0,35.15-50.29L4267.34,961.33a37.43,37.43,0,0,0-35.16-24.57h-109A37.42,37.42,0,0,0,4088,961.33l-235.68,644.44a37.43,37.43,0,0,0,35.15,50.29h493.12ZM4036.1,1474.74l105.66-302.1c11.7-33.45,59-33.42,70.68.06l105.12,302.1a37.43,37.43,0,0,1-35.35,49.73H4071.43A37.43,37.43,0,0,1,4036.1,1474.74Z"/><path class="cls-1" d="M2320.38,1668.39q-108.93,0-187-46.75t-120.23-130.51Q1971,1407.4,1971,1297.44t42.13-194.21q42.12-84.26,120.23-131.53t187-47.27q129.47,0,212.19,64.22,70.71,54.92,96,147.73a25.75,25.75,0,0,1-24.75,32.61H2510.4a26,26,0,0,1-24.49-18.08q-15.3-45.83-52-73.89-43.69-33.37-115.61-33.39-99.68,0-156.19,67.81t-56.51,186q0,118.17,56.51,185.47t156.19,67.31q71.91,0,115.61-31.34,36.43-26.16,51.78-69.15c3.73-10.45,13.28-17.69,24.38-17.69h93.31a25.73,25.73,0,0,1,24.67,32.9q-25.47,87.7-95.5,140.77Q2449.86,1668.4,2320.38,1668.39Z"/><path class="cls-1" d="M3581.19,1668.39q-79.14,0-139.75-27.23t-95.56-78.1q-24.11-35.05-32.07-80.62c-3.94-22.58,13.79-43.2,36.71-43.2H3418c16.62,0,30.49,11.7,34.52,27.83a120.55,120.55,0,0,0,32.58,56.94q34.41,34.46,95,34.43,52.41,0,83.23-25.18t30.83-67.3q0-44.18-27.23-68.85T3594.54,1357q-45.23-15.42-96.59-32.89-83.23-28.76-126.9-74t-43.67-120.23q-1.05-63.7,30.31-109.43t85.8-70.91q54.45-25.17,125.37-25.17,71.91,0,126.9,25.69t86.31,71.93a188.82,188.82,0,0,1,27.82,65c5.22,23.06-12.74,45-36.39,45h-67.62c-16,0-30.6-10-35.19-25.35s-13-29.21-25.28-42q-28.27-29.28-78.61-29.28-43.15-1-72.45,21.06t-29.28,64.22q0,36,22.6,57t61.66,35.46q39,14.4,89.4,30.82,53.42,18.49,97.62,43.16t70.9,65.25Q3834,1393,3834,1456.71a201.22,201.22,0,0,1-28.77,104.81q-28.78,48.32-85.3,77.58T3581.19,1668.39Z"/><path class="cls-1" d="M4552.21,1618.27V974.54A37.77,37.77,0,0,1,4590,936.76H4816.3q86.31,0,142.31,29.28t83.75,79.13q27.75,49.85,27.75,110.46,0,65.77-34.43,120.23-25.83,40.85-73.31,64.93c-18.34,9.3-25.2,32.12-16.08,50.55l104,210.18a37.78,37.78,0,0,1-33.86,54.54h-66.23a37.79,37.79,0,0,1-34.18-21.69l-113.15-240.24a37.78,37.78,0,0,0-34.18-21.68h-47.18a37.77,37.77,0,0,0-37.78,37.78v208a37.79,37.79,0,0,1-37.79,37.79h-56A37.78,37.78,0,0,1,4552.21,1618.27Zm131.53-380.19a37.78,37.78,0,0,0,37.78,37.78h86.55q65.76,0,96.6-31.86t30.82-84.26q0-51.37-30.31-82.21t-98.13-30.82h-85.53a37.77,37.77,0,0,0-37.78,37.78Z"/><path class="cls-1" d="M5141,1617.88v-439a38.18,38.18,0,0,1,38.18-38.18h55.17a38.18,38.18,0,0,1,38.18,38.18v439a38.19,38.19,0,0,1-38.18,38.18h-55.17A38.18,38.18,0,0,1,5141,1617.88Z"/><path class="cls-1" d="M5311.21,1009.05c-8.4,34.67-34.57,62.3-69.92,73.73a130.5,130.5,0,0,1-39.35,6.15h-1.46c-29.89-1-54.49-10.84-73.34-29.49a94.86,94.86,0,0,1-27.44-74,95.9,95.9,0,0,1,38.08-70.5,101.78,101.78,0,0,1,15.92-9.86,39,39,0,0,1,36.81-25.49h1.86c5.57.29,12.11.59,18.95,1.56,30.66,4,54.29,14.75,72.45,33C5309.16,939.62,5319.41,975.17,5311.21,1009.05Z"/><path class="cls-1" d="M1743.16,842.73q0,252.81-110.83,441.66-110.64,189.36-306.95,296.3T871.59,1687.85q-257.7,0-454-107.16t-306.95-296.3Q0,1095.66,0,842.73,0,592.19,110.64,402a798.89,798.89,0,0,1,64.84-94.88Q265.34,194,394,119.1q11.66-6.78,23.63-13.25Q614.11-.23,871.59,0q257.7,0,453.79,105.85,196.2,106.08,306.95,296.1Q1743.27,592.3,1743.16,842.73Z"/><path class="cls-2" d="M894.56,236.29Q994.51,300,1037.89,399.76T1065.54,619q-15.72,119.57-93,240.75-78,122.35-179.3,186.33-101.36,64.31-210.5,67.5t-209.07-60.37q-99.94-63.74-143-164.15T203,669.71Q218.37,551,296.42,428.6q77.34-121.26,179-186Q577.05,178.1,685.8,175.24,794.76,172.5,894.56,236.29Z"/><path d="M772.77,427.26q53.22,33.94,76.32,87T863.82,631q-8.37,63.68-49.55,128.19-41.55,65.14-95.47,99.22-54,34.23-112.08,35.93T495.4,862.22q-53.22-33.93-76.14-87.4T404.57,658q8.16-63.21,49.73-128.38,41.18-64.57,95.28-99t112-35.89Q719.64,393.29,772.77,427.26Z"/><path class="cls-1" d="M634.22,638l516.37-243.3Q1203,555,1193.31,729Z"/></g></g></svg>