<svg xmlns="http://www.w3.org/2000/svg" viewBox="0 0 627.44 638.1"><defs><style>.cls-1{fill:#d70073;}.cls-2{fill:#fff;}</style></defs><g id="Layer_2" data-name="Layer 2"><g id="Imagotipo"><path class="cls-1" d="M626.68,331.76Q621,427.24,577,496.86,533,566.7,460.18,604.12T294.84,637.74q-92.53-3.9-160.63-47.32T30.63,473.89Q-4.87,401,.78,305.44q5.61-94.6,49.57-164.77T167.18,33.49Q240.13-3.61,332.57.37T493.14,47.19A289,289,0,0,1,519.2,65.73L421.48,182.88,311.18,315.14l163.46-51.29L617,219.19Q630.29,271.15,626.68,331.76Z"/><path d="M480.35,325.82q-3,50.83-26.45,87.91a157.36,157.36,0,0,1-62.21,57.11q-38.79,19.95-88,17.9t-85.51-25.2a149.88,149.88,0,0,1-55.16-62q-18.91-38.83-15.9-89.69,3-50.38,26.41-87.74A156,156,0,0,1,235.69,167q38.83-19.74,88.05-17.63t85.51,24.93q6.39,4,12.23,8.58L311.18,315.14l163.46-51.29Q482.35,292.37,480.35,325.82Z"/><path class="cls-2" d="M617,219.19,474.64,263.85,311.18,315.14l110.3-132.26L519.2,65.73q49.17,39.24,77.54,97.91A295.55,295.55,0,0,1,617,219.19Z"/></g></g></svg>